# xmcd CD database file
# Copyright (C) 1993-1998 Ti Kan
# 
# Track frame offsets:
# 183
# 10195
# 21888
# 35038
# 48525
# 60270
# 71295
# 87430
# 103415
# 116718
# 128868
# 140253
# 151675
# 162448
# 174943
# 185918
# 199238
# 215028
# 226018
# 237338
# 
# Disc length: 3302 seconds
# 
# Revision: 0
# Processed by: cddbd v1.4b41PL1 Copyright (c) Steve Scherf et al.
# Submitted via: SuperSonic v3.0
# 
DISCID=170ce414
DTITLE=John Lee Hooker - Whiskey and Wimmen
DYEAR=1900
DGENRE=
TTITLE0=Dimples
TTITLE1=I Love You Honey
TTITLE2=I'm So Excited
TTITLE3=Whiskey and WImmen
TTITLE4=Solid Sender
TTITLE5=No Shoes
TTITLE6=My First Wife Left Me
TTITLE7=Dirty Ground Hog
TTITLE8=I'm Going Upstairs
TTITLE9=I'm Mad Again
TTITLE10=What Do You Say
TTITLE11=Boom Boom
TTITLE12=She's Mine
TTITLE13=Drug Store Woman
TTITLE14=Send Me Your Pillow
TTITLE15=Don't Look Back
TTITLE16=One Way Ticket
TTITLE17=Bottle Up And Go
TTITLE18=This Is Hip
TTITLE19=Big Legs, Tight Skirt
EXTD=
EXTT0=
EXTT1=
EXTT2=
EXTT3=
EXTT4=
EXTT5=
EXTT6=
EXTT7=
EXTT8=
EXTT9=
EXTT10=
EXTT11=
EXTT12=
EXTT13=
EXTT14=
EXTT15=
EXTT16=
EXTT17=
EXTT18=
EXTT19=
PLAYORDER=
